# xmcd CD database file
#
# Track frame offsets:
#	150
#	25615
#	57342
#
# Disc length: 4440 seconds
#
# Revision: 0
# Processed by: cddbd v1.5PL3 Copyright (c) Steve Scherf et al.
# Submitted via: CDex 1.50beta9
#
DISCID=1b115603
DTITLE=椿 - 川の流れのように
DYEAR=1900
DGENRE=Pop
TTITLE0=川の流れのように
TTITLE1=FRIENDS
TTITLE2=CCCD Data
EXTD=
EXTT0=
EXTT1=
EXTT2=
PLAYORDER=
